<mxfile host="app.diagrams.net" modified="2022-04-28T14:34:48.500Z" agent="5.0 (Windows NT 10.0; Win64; x64) AppleWebKit/537.36 (KHTML, like Gecko) Chrome/100.0.4896.127 Safari/537.36 Edg/100.0.1185.50" etag="i8Me7aKaw1JuTWmeQPXw" version="17.4.6" type="github">
  <diagram id="-fvV7ZC0mbwngnf7EjaF" name="Page-1">
    <mxGraphModel dx="1038" dy="579" grid="1" gridSize="10" guides="1" tooltips="1" connect="1" arrows="1" fold="1" page="1" pageScale="1" pageWidth="850" pageHeight="1100" math="0" shadow="0">
      <root>
        <mxCell id="0" />
        <mxCell id="1" parent="0" />
        <mxCell id="orNPnx59yL5S_DQuJU4D-3" value="" style="edgeStyle=orthogonalEdgeStyle;rounded=0;orthogonalLoop=1;jettySize=auto;html=1;" edge="1" parent="1" source="orNPnx59yL5S_DQuJU4D-1" target="orNPnx59yL5S_DQuJU4D-2">
          <mxGeometry relative="1" as="geometry" />
        </mxCell>
        <mxCell id="orNPnx59yL5S_DQuJU4D-1" value="start" style="rounded=1;whiteSpace=wrap;html=1;" vertex="1" parent="1">
          <mxGeometry x="210" y="40" width="90" height="20" as="geometry" />
        </mxCell>
        <mxCell id="orNPnx59yL5S_DQuJU4D-5" value="" style="edgeStyle=orthogonalEdgeStyle;rounded=0;orthogonalLoop=1;jettySize=auto;html=1;" edge="1" parent="1" source="orNPnx59yL5S_DQuJU4D-2" target="orNPnx59yL5S_DQuJU4D-4">
          <mxGeometry relative="1" as="geometry" />
        </mxCell>
        <mxCell id="orNPnx59yL5S_DQuJU4D-2" value="FOR all waiting for exit data" style="rhombus;whiteSpace=wrap;html=1;" vertex="1" parent="1">
          <mxGeometry x="215" y="100" width="80" height="80" as="geometry" />
        </mxCell>
        <mxCell id="orNPnx59yL5S_DQuJU4D-7" value="" style="edgeStyle=orthogonalEdgeStyle;rounded=0;orthogonalLoop=1;jettySize=auto;html=1;" edge="1" parent="1" source="orNPnx59yL5S_DQuJU4D-4" target="orNPnx59yL5S_DQuJU4D-6">
          <mxGeometry relative="1" as="geometry" />
        </mxCell>
        <mxCell id="orNPnx59yL5S_DQuJU4D-8" style="edgeStyle=orthogonalEdgeStyle;rounded=0;orthogonalLoop=1;jettySize=auto;html=1;entryX=1;entryY=0.5;entryDx=0;entryDy=0;" edge="1" parent="1" source="orNPnx59yL5S_DQuJU4D-4" target="orNPnx59yL5S_DQuJU4D-2">
          <mxGeometry relative="1" as="geometry">
            <Array as="points">
              <mxPoint x="255" y="300" />
              <mxPoint x="330" y="300" />
              <mxPoint x="330" y="140" />
            </Array>
          </mxGeometry>
        </mxCell>
        <mxCell id="orNPnx59yL5S_DQuJU4D-9" value="next waiting pop grp" style="edgeLabel;html=1;align=center;verticalAlign=middle;resizable=0;points=[];" vertex="1" connectable="0" parent="orNPnx59yL5S_DQuJU4D-8">
          <mxGeometry x="0.2814" y="-2" relative="1" as="geometry">
            <mxPoint as="offset" />
          </mxGeometry>
        </mxCell>
        <mxCell id="orNPnx59yL5S_DQuJU4D-4" value="call&amp;nbsp;sendToRest for each grp" style="rounded=1;whiteSpace=wrap;html=1;fillColor=#f8cecc;gradientColor=#ea6b66;strokeColor=#b85450;" vertex="1" parent="1">
          <mxGeometry x="195" y="220" width="120" height="60" as="geometry" />
        </mxCell>
        <mxCell id="orNPnx59yL5S_DQuJU4D-11" value="" style="edgeStyle=orthogonalEdgeStyle;rounded=0;orthogonalLoop=1;jettySize=auto;html=1;" edge="1" parent="1" source="orNPnx59yL5S_DQuJU4D-6" target="orNPnx59yL5S_DQuJU4D-10">
          <mxGeometry relative="1" as="geometry" />
        </mxCell>
        <mxCell id="orNPnx59yL5S_DQuJU4D-6" value="return remaining waiting rest array" style="rounded=0;whiteSpace=wrap;html=1;" vertex="1" parent="1">
          <mxGeometry x="195" y="310" width="120" height="60" as="geometry" />
        </mxCell>
        <mxCell id="orNPnx59yL5S_DQuJU4D-10" value="end" style="ellipse;whiteSpace=wrap;html=1;rounded=0;" vertex="1" parent="1">
          <mxGeometry x="395" y="310" width="120" height="60" as="geometry" />
        </mxCell>
      </root>
    </mxGraphModel>
  </diagram>
</mxfile>
